<?xml version="1.0" standalone="no"?>
<!DOCTYPE svg PUBLIC "-//W3C//DTD SVG 20010904//EN"
 "http://www.w3.org/TR/2001/REC-SVG-20010904/DTD/svg10.dtd">
<svg version="1.0" xmlns="http://www.w3.org/2000/svg"
 width="500.000000pt" height="500.000000pt" viewBox="0 0 500.000000 500.000000"
 preserveAspectRatio="xMidYMid meet">

<g transform="translate(0.000000,500.000000) scale(0.100000,-0.100000)"
fill="#000000" stroke="none">
<path d="M0 2500 l0 -2500 2500 0 2500 0 0 2500 0 2500 -2500 0 -2500 0 0
-2500z m3191 2404 c231 -58 399 -221 449 -433 11 -47 10 -186 -2 -266 -3 -19
3 -20 82 -20 76 0 93 -4 152 -33 79 -39 131 -93 170 -179 22 -50 33 -63 46
-59 236 72 502 73 648 1 291 -143 169 -607 -190 -721 -55 -17 -115 -24 -266
-33 -147 -9 -821 -30 -973 -31 -15 0 -13 -5 12 -30 37 -38 48 -88 30 -137 -18
-46 -54 -73 -108 -80 -26 -4 -45 -13 -51 -24 -12 -21 -7 -25 45 -34 60 -11
113 -42 130 -75 8 -16 15 -53 15 -82 0 -104 -56 -157 -179 -167 -77 -7 -72 9
-52 -183 18 -172 0 -263 -67 -331 -44 -45 -96 -61 -168 -52 -91 11 -153 73
-168 167 -9 53 9 186 40 305 14 53 23 102 20 110 -4 8 -23 13 -53 13 -61 0
-129 33 -149 73 -22 42 -15 138 13 175 36 49 78 66 157 64 l71 -1 1 69 c2 83
29 146 81 189 l35 29 -344 6 c-330 7 -1026 30 -1233 41 -372 21 -758 47 -805
55 -101 18 -195 74 -296 174 -180 181 -218 353 -120 550 131 266 457 352 774
206 39 -18 77 -30 85 -27 9 3 16 29 21 76 26 286 252 569 536 672 58 21 81 24
225 23 155 0 163 -1 250 -33 104 -38 198 -91 279 -156 l56 -46 75 55 c232 175
492 240 726 180z m888 -1870 c76 -22 121 -68 121 -124 0 -90 -52 -140 -143
-140 -25 0 -48 -4 -51 -9 -13 -20 8 -39 49 -45 58 -9 106 -42 129 -90 17 -35
18 -46 8 -94 -20 -94 -75 -135 -178 -131 -36 1 -69 -2 -75 -8 -7 -7 -10 -42
-8 -91 4 -75 6 -81 41 -120 50 -55 76 -143 87 -300 19 -252 -17 -590 -96 -892
-19 -74 -37 -144 -40 -156 -4 -19 0 -21 52 -23 92 -3 157 -39 193 -106 24 -46
21 -149 -7 -207 -62 -129 -256 -221 -431 -204 -242 24 -315 150 -327 571 -9
311 24 659 92 983 19 89 24 135 19 175 -8 66 13 167 63 311 19 54 32 104 29
111 -2 7 -32 17 -65 24 -107 21 -157 93 -132 189 15 54 53 98 98 113 31 10
104 9 153 -3 11 -2 16 12 21 60 10 77 51 156 100 189 67 44 178 50 298 17z
m-2727 -85 c68 -22 130 -79 168 -153 33 -65 35 -75 35 -165 0 -88 -3 -101 -29
-149 -58 -104 -157 -166 -298 -186 -44 -6 -83 -17 -87 -25 -5 -7 -1 -43 10
-84 10 -39 21 -95 25 -124 6 -48 9 -53 31 -53 52 0 181 -33 243 -62 247 -117
354 -473 221 -736 -60 -119 -166 -209 -314 -265 -78 -29 -90 -31 -225 -32
-138 0 -143 -1 -137 -20 52 -183 69 -276 69 -391 1 -115 0 -123 -29 -179 -55
-107 -157 -160 -310 -159 -93 0 -142 20 -193 79 -43 48 -57 78 -86 179 -36
123 -54 228 -71 416 -35 390 -9 682 77 843 44 83 146 174 255 228 48 24 89 44
90 44 1 1 -4 23 -12 49 -43 142 -71 431 -56 567 14 119 24 153 60 211 54 85
160 145 306 174 77 15 200 12 257 -7z m1038 -71 c37 -19 50 -34 77 -88 55
-112 88 -336 81 -549 -7 -201 -49 -266 -171 -258 -47 3 -63 9 -87 32 -17 16
-33 39 -36 52 -10 37 -33 31 -88 -23 -112 -108 -284 -120 -388 -26 -75 68
-124 211 -148 430 -21 188 -4 309 51 359 54 49 153 59 210 20 58 -38 76 -92
94 -272 18 -184 28 -231 58 -256 31 -26 52 -23 89 10 l33 29 -4 124 c-3 68 -5
176 -5 240 -1 111 0 118 24 143 53 58 135 70 210 33z m411 -1042 c232 -59 365
-182 438 -406 63 -191 101 -557 80 -779 -13 -137 -47 -239 -96 -283 -67 -61
-234 -82 -324 -41 -36 16 -51 30 -68 65 -11 24 -21 51 -21 59 0 31 -14 27 -59
-17 -84 -84 -179 -126 -326 -144 -105 -13 -247 0 -328 30 -213 80 -326 312
-258 531 65 207 260 319 554 319 118 0 204 -18 288 -60 l59 -29 0 23 c0 47
-32 128 -66 166 -76 84 -201 95 -408 36 -142 -39 -249 -47 -309 -22 -41 17
-91 74 -107 122 -17 50 -6 126 24 179 130 221 573 341 927 251z"/>
<path d="M2020 4382 c-67 -18 -131 -49 -137 -67 -2 -6 3 -20 11 -30 13 -18 17
-19 48 -6 73 29 165 51 220 51 63 0 86 18 67 53 -13 23 -119 22 -209 -1z"/>
<path d="M2781 4382 c-18 -34 4 -52 67 -52 55 0 147 -22 220 -51 30 -13 35
-12 47 4 8 11 11 25 8 33 -22 58 -316 114 -342 66z"/>
<path d="M2109 4016 c-93 -33 -139 -97 -139 -194 0 -176 211 -263 336 -138 87
86 82 213 -10 294 -56 49 -121 62 -187 38z"/>
<path d="M2957 4020 c-40 -12 -95 -57 -118 -93 -42 -71 -33 -169 24 -234 41
-46 82 -63 154 -63 75 0 127 29 166 91 47 77 34 195 -29 250 -51 45 -141 67
-197 49z"/>
<path d="M2324 3485 c-11 -28 5 -44 57 -59 101 -31 271 -12 277 30 5 38 -18
46 -97 33 -53 -9 -84 -9 -127 0 -77 15 -103 14 -110 -4z"/>
<path d="M1154 2741 c-51 -13 -95 -44 -115 -83 -27 -52 -24 -84 10 -119 36
-35 93 -39 158 -9 138 62 92 246 -53 211z"/>
<path d="M1041 1634 c-115 -31 -191 -122 -191 -231 0 -92 59 -146 160 -146 96
0 214 53 255 116 23 35 34 112 23 160 -22 99 -114 137 -247 101z"/>
<path d="M2466 895 c-57 -20 -100 -67 -100 -108 0 -78 63 -120 179 -121 120
-1 215 60 215 138 0 35 -45 84 -88 96 -52 14 -160 12 -206 -5z"/>
</g>
</svg>
